# xmcd CD database file
#
# Track frame offsets:
#	150
#	21439
#	57714
#	75931
#	108209
#	143118
#	160326
#	191611
#	197434
#	215485
#
# Disc length: 3338 seconds
#
# Revision: 0
# Processed by: cddbd v1.5PL3 Copyright (c) Steve Scherf et al.
# Submitted via: CDex 1.51
#
DISCID=860d080a
DTITLE=Bonten - Wadaiko
DYEAR=2004
DGENRE=New Age
TTITLE0=DNA
TTITLE1=WAVE III
TTITLE2=HITEN
TTITLE3=(Japanese Title)
TTITLE4=FLOWERS
TTITLE5=SHINRA
TTITLE6=POSEIDON
TTITLE7=(Japanese Title)
TTITLE8=SAMURAI
TTITLE9=(Japanese Title)
EXTD=YEAR: 2004
EXTT0=
EXTT1=
EXTT2=
EXTT3=
EXTT4=
EXTT5=
EXTT6=
EXTT7=
EXTT8=
EXTT9=
PLAYORDER=
